<svg width="292" height="25" viewBox="0 0 292 25" fill="none" xmlns="http://www.w3.org/2000/svg">
<path d="M12.207 18.5L11.4688 15.4062H6.45312L5.65625 18.5H0.183594L5.97266 1.69531H12.2539L17.7031 18.5H12.207ZM9.01953 5.35156H8.90234C8.88672 5.53906 8.83203 5.84766 8.73828 6.27734C8.64453 6.70703 8.17188 8.55078 7.32031 11.8086H10.5312L9.35938 7.23828C9.19531 6.56641 9.08203 5.9375 9.01953 5.35156ZM28.4609 4.36719C27.9453 4.1875 27.4648 4.09766 27.0195 4.09766C26.4648 4.09766 26.0547 4.24219 25.7891 4.53125C25.5234 4.8125 25.3906 5.19531 25.3906 5.67969V6.5H28.168V9.95703H25.3906V18.5H20.3984V9.95703H18.3828V6.5H20.3984V5.39844C20.3984 4.42188 20.625 3.5625 21.0781 2.82031C21.5312 2.07031 22.1875 1.48828 23.0469 1.07422C23.9141 0.660156 24.9648 0.453125 26.1992 0.453125C27.0898 0.453125 27.8438 0.539062 28.4609 0.710938V4.36719ZM38.5977 10.7773C38.4102 10.6914 38.1562 10.6133 37.8359 10.543C37.5156 10.4727 37.25 10.4375 37.0391 10.4375C35.3906 10.4375 34.5664 11.3906 34.5664 13.2969V18.5H29.5742V6.5H34.5664V8.60938H34.6133C34.918 7.85156 35.3516 7.27734 35.9141 6.88672C36.4766 6.48828 37.1328 6.28906 37.8828 6.28906C38.1562 6.28906 38.3945 6.33594 38.5977 6.42969V10.7773ZM45.3359 3.26562C45.3359 3.96875 45.0781 4.53906 44.5625 4.97656C44.0547 5.41406 43.3828 5.63281 42.5469 5.63281C41.7344 5.63281 41.0664 5.40625 40.543 4.95312C40.0273 4.5 39.7695 3.9375 39.7695 3.26562C39.7695 2.57812 40.0195 2.02344 40.5195 1.60156C41.0273 1.17188 41.7031 0.957031 42.5469 0.957031C43.3828 0.957031 44.0547 1.17188 44.5625 1.60156C45.0781 2.02344 45.3359 2.57812 45.3359 3.26562ZM40.0508 18.5V6.5H45.043V18.5H40.0508ZM57.3477 18.1602C57.0273 18.3477 56.5234 18.5 55.8359 18.6172C55.1484 18.7344 54.3555 18.793 53.457 18.793C52.1914 18.793 51.0586 18.5391 50.0586 18.0312C49.0664 17.5156 48.2969 16.7969 47.75 15.875C47.2031 14.9531 46.9297 13.918 46.9297 12.7695C46.9297 11.3945 47.2188 10.2188 47.7969 9.24219C48.3828 8.25781 49.2148 7.50781 50.293 6.99219C51.3711 6.46875 52.6211 6.20703 54.043 6.20703C54.8242 6.20703 55.5234 6.25781 56.1406 6.35938C56.7656 6.46094 57.168 6.57812 57.3477 6.71094V10.6016C57.0977 10.4062 56.7383 10.2344 56.2695 10.0859C55.8008 9.9375 55.3672 9.86328 54.9688 9.86328C53.9922 9.86328 53.25 10.0977 52.7422 10.5664C52.2422 11.0273 51.9922 11.6797 51.9922 12.5234C51.9922 13.3516 52.2383 13.9961 52.7305 14.457C53.2305 14.9102 53.9141 15.1367 54.7812 15.1367C55.7109 15.1367 56.5664 14.9141 57.3477 14.4688V18.1602ZM65.9961 18.5V16.6719H65.9492C65.1523 18.0859 63.9336 18.793 62.293 18.793C61.1602 18.793 60.2734 18.457 59.6328 17.7852C58.9922 17.1133 58.6719 16.2148 58.6719 15.0898C58.6719 12.7305 60.1211 11.3633 63.0195 10.9883L65.9961 10.6016C65.9961 10.2109 65.8203 9.89062 65.4688 9.64062C65.1172 9.39062 64.6445 9.26562 64.0508 9.26562C62.707 9.26562 61.2891 9.64844 59.7969 10.4141V7.16797C60.4453 6.88672 61.2578 6.65625 62.2344 6.47656C63.2109 6.29688 64.0469 6.20703 64.7422 6.20703C66.7812 6.20703 68.2578 6.64453 69.1719 7.51953C70.0938 8.38672 70.5547 9.83984 70.5547 11.8789V18.5H65.9961ZM63.043 14.4219C63.043 14.75 63.1445 15.0195 63.3477 15.2305C63.5586 15.4414 63.8555 15.5469 64.2383 15.5469C64.7617 15.5469 65.1836 15.3516 65.5039 14.9609C65.832 14.5703 65.9961 14.0703 65.9961 13.4609V13.0039L64.3086 13.2383C63.4648 13.3789 63.043 13.7734 63.043 14.4219Z" fill="#C02507"/>
<path d="M99.0898 18.5H93.7109L91.3789 8.92578C91.3086 8.65234 91.2305 7.97266 91.1445 6.88672H91.0977C90.9805 7.84766 90.8672 8.52734 90.7578 8.92578L88.2383 18.5H82.543L78.5352 1.69531H84.0898L85.4961 11.5859C85.5195 11.7109 85.5547 12.0742 85.6016 12.6758L85.6719 13.6484H85.7422C85.7578 13.4453 85.8047 13.1016 85.8828 12.6172C85.9609 12.125 86.0352 11.7578 86.1055 11.5156L88.6953 1.69531H94.2148L96.3711 11.6562L96.5234 12.6523L96.6406 13.625H96.6875L96.7227 13.2148L96.875 11.5859L98.3398 1.69531H103.332L99.0898 18.5ZM110.07 3.26562C110.07 3.96875 109.812 4.53906 109.297 4.97656C108.789 5.41406 108.117 5.63281 107.281 5.63281C106.469 5.63281 105.801 5.40625 105.277 4.95312C104.762 4.5 104.504 3.9375 104.504 3.26562C104.504 2.57812 104.754 2.02344 105.254 1.60156C105.762 1.17188 106.438 0.957031 107.281 0.957031C108.117 0.957031 108.789 1.17188 109.297 1.60156C109.812 2.02344 110.07 2.57812 110.07 3.26562ZM104.785 18.5V6.5H109.777V18.5H104.785ZM112.191 18.5V0.734375H117.184V18.5H112.191ZM127.613 18.5V17.1055H127.566C127.168 17.6289 126.648 18.043 126.008 18.3477C125.367 18.6445 124.734 18.793 124.109 18.793C123.086 18.793 122.184 18.543 121.402 18.043C120.621 17.5352 120.035 16.8281 119.645 15.9219C119.262 15.0156 119.07 13.9453 119.07 12.7109C119.07 11.4375 119.301 10.3086 119.762 9.32422C120.223 8.33984 120.871 7.57422 121.707 7.02734C122.543 6.48047 123.48 6.20703 124.52 6.20703C125.012 6.20703 125.465 6.27734 125.879 6.41797C126.301 6.55859 126.664 6.75 126.969 6.99219C127.281 7.22656 127.48 7.46094 127.566 7.69531H127.613V0.734375H132.605V18.5H127.613ZM127.719 12.1367C127.719 11.418 127.559 10.8594 127.238 10.4609C126.926 10.0625 126.5 9.86328 125.961 9.86328C125.422 9.86328 124.98 10.1133 124.637 10.6133C124.301 11.1055 124.133 11.7656 124.133 12.5938C124.133 14.2891 124.719 15.1367 125.891 15.1367C126.445 15.1367 126.887 14.9102 127.215 14.457C127.551 13.9961 127.719 13.3281 127.719 12.4531V12.1367ZM142.156 18.5V1.69531H147.219V14.5391H153.008V18.5H142.156ZM159.969 3.26562C159.969 3.96875 159.711 4.53906 159.195 4.97656C158.688 5.41406 158.016 5.63281 157.18 5.63281C156.367 5.63281 155.699 5.40625 155.176 4.95312C154.66 4.5 154.402 3.9375 154.402 3.26562C154.402 2.57812 154.652 2.02344 155.152 1.60156C155.66 1.17188 156.336 0.957031 157.18 0.957031C158.016 0.957031 158.688 1.17188 159.195 1.60156C159.711 2.02344 159.969 2.57812 159.969 3.26562ZM154.684 18.5V6.5H159.676V18.5H154.684ZM171.336 4.36719C170.82 4.1875 170.34 4.09766 169.895 4.09766C169.34 4.09766 168.93 4.24219 168.664 4.53125C168.398 4.8125 168.266 5.19531 168.266 5.67969V6.5H171.043V9.95703H168.266V18.5H163.273V9.95703H161.258V6.5H163.273V5.39844C163.273 4.42188 163.5 3.5625 163.953 2.82031C164.406 2.07031 165.062 1.48828 165.922 1.07422C166.789 0.660156 167.84 0.453125 169.074 0.453125C169.965 0.453125 170.719 0.539062 171.336 0.710938V4.36719ZM176.75 13.918C176.836 14.4336 177.133 14.8398 177.641 15.1367C178.148 15.4258 178.82 15.5703 179.656 15.5703C180.82 15.5703 181.922 15.3477 182.961 14.9023V18.0664C181.75 18.5508 180.281 18.793 178.555 18.793C176.461 18.793 174.832 18.2578 173.668 17.1875C172.504 16.1172 171.922 14.6445 171.922 12.7695C171.922 11.4805 172.176 10.3438 172.684 9.35938C173.199 8.375 173.957 7.60547 174.957 7.05078C175.965 6.48828 177.074 6.20703 178.285 6.20703C179.527 6.20703 180.59 6.44922 181.473 6.93359C182.355 7.41797 183.023 8.09766 183.477 8.97266C183.938 9.84766 184.168 10.8711 184.168 12.043V13.918H176.75ZM179.75 11.3047C179.75 9.92188 179.254 9.23047 178.262 9.23047C177.848 9.23047 177.5 9.42188 177.219 9.80469C176.938 10.1797 176.773 10.6797 176.727 11.3047H179.75ZM193.039 18.5V1.69531H203.504V5.65625H198.102V8.10547H203.176V12.0664H198.102V14.5391H203.891V18.5H193.039ZM215.691 12.1133L219.559 18.5H213.816L212.527 15.7695C212.379 15.4648 212.211 15.0469 212.023 14.5156H211.977C211.812 15.0469 211.707 15.375 211.66 15.5C211.613 15.6172 211.156 16.6172 210.289 18.5H204.582L208.566 12.4531L204.816 6.5H210.582L211.871 9.28906C212.043 9.60938 212.215 10.0469 212.387 10.6016H212.434C212.66 9.92188 212.82 9.47656 212.914 9.26562L214.133 6.5H219.582L215.691 12.1133ZM234.266 12.1367C234.266 13.4492 234.043 14.6094 233.598 15.6172C233.152 16.625 232.523 17.4062 231.711 17.9609C230.898 18.5156 229.984 18.793 228.969 18.793C227.562 18.793 226.496 18.2812 225.77 17.2578H225.723V24.0195H220.73V6.5H225.723V8.12891H225.77C226.168 7.52734 226.684 7.05859 227.316 6.72266C227.949 6.37891 228.668 6.20703 229.473 6.20703C231.02 6.20703 232.203 6.72266 233.023 7.75391C233.852 8.78516 234.266 10.2461 234.266 12.1367ZM229.203 12.2891C229.203 11.5312 229.055 10.9375 228.758 10.5078C228.469 10.0781 228.02 9.86328 227.41 9.86328C226.879 9.86328 226.449 10.0898 226.121 10.543C225.793 10.9961 225.629 11.6172 225.629 12.4062V12.6406C225.629 13.3984 225.77 14.0039 226.051 14.457C226.332 14.9102 226.754 15.1367 227.316 15.1367C227.918 15.1367 228.383 14.8906 228.711 14.3984C229.039 13.8984 229.203 13.1953 229.203 12.2891ZM236.152 18.5V0.734375H241.145V18.5H236.152ZM256.906 12.2891C256.906 14.3125 256.293 15.9023 255.066 17.0586C253.848 18.2148 252.141 18.793 249.945 18.793C247.766 18.793 246.066 18.2305 244.848 17.1055C243.637 15.9727 243.031 14.4141 243.031 12.4297C243.031 11.1562 243.316 10.0508 243.887 9.11328C244.457 8.17578 245.27 7.45703 246.324 6.95703C247.379 6.45703 248.594 6.20703 249.969 6.20703C251.391 6.20703 252.621 6.46875 253.66 6.99219C254.707 7.51562 255.508 8.24219 256.062 9.17188C256.625 10.1016 256.906 11.1406 256.906 12.2891ZM251.844 12.3125C251.844 10.6797 251.219 9.86328 249.969 9.86328C248.719 9.86328 248.094 10.7188 248.094 12.4297C248.094 14.2344 248.727 15.1367 249.992 15.1367C251.227 15.1367 251.844 14.1953 251.844 12.3125ZM267.793 10.7773C267.605 10.6914 267.352 10.6133 267.031 10.543C266.711 10.4727 266.445 10.4375 266.234 10.4375C264.586 10.4375 263.762 11.3906 263.762 13.2969V18.5H258.77V6.5H263.762V8.60938H263.809C264.113 7.85156 264.547 7.27734 265.109 6.88672C265.672 6.48828 266.328 6.28906 267.078 6.28906C267.352 6.28906 267.59 6.33594 267.793 6.42969V10.7773ZM273.547 13.918C273.633 14.4336 273.93 14.8398 274.438 15.1367C274.945 15.4258 275.617 15.5703 276.453 15.5703C277.617 15.5703 278.719 15.3477 279.758 14.9023V18.0664C278.547 18.5508 277.078 18.793 275.352 18.793C273.258 18.793 271.629 18.2578 270.465 17.1875C269.301 16.1172 268.719 14.6445 268.719 12.7695C268.719 11.4805 268.973 10.3438 269.48 9.35938C269.996 8.375 270.754 7.60547 271.754 7.05078C272.762 6.48828 273.871 6.20703 275.082 6.20703C276.324 6.20703 277.387 6.44922 278.27 6.93359C279.152 7.41797 279.82 8.09766 280.273 8.97266C280.734 9.84766 280.965 10.8711 280.965 12.043V13.918H273.547ZM276.547 11.3047C276.547 9.92188 276.051 9.23047 275.059 9.23047C274.645 9.23047 274.297 9.42188 274.016 9.80469C273.734 10.1797 273.57 10.6797 273.523 11.3047H276.547ZM291.723 10.7773C291.535 10.6914 291.281 10.6133 290.961 10.543C290.641 10.4727 290.375 10.4375 290.164 10.4375C288.516 10.4375 287.691 11.3906 287.691 13.2969V18.5H282.699V6.5H287.691V8.60938H287.738C288.043 7.85156 288.477 7.27734 289.039 6.88672C289.602 6.48828 290.258 6.28906 291.008 6.28906C291.281 6.28906 291.52 6.33594 291.723 6.42969V10.7773Z" fill="white"/>
</svg>
