<svg width="292" height="33" viewBox="0 0 292 33" fill="none" xmlns="http://www.w3.org/2000/svg">
<path d="M12.207 19L11.4688 15.9062H6.45312L5.65625 19H0.183594L5.97266 2.19531H12.2539L17.7031 19H12.207ZM9.01953 5.85156H8.90234C8.88672 6.03906 8.83203 6.34766 8.73828 6.77734C8.64453 7.20703 8.17188 9.05078 7.32031 12.3086H10.5312L9.35938 7.73828C9.19531 7.06641 9.08203 6.4375 9.01953 5.85156ZM28.4609 4.86719C27.9453 4.6875 27.4648 4.59766 27.0195 4.59766C26.4648 4.59766 26.0547 4.74219 25.7891 5.03125C25.5234 5.3125 25.3906 5.69531 25.3906 6.17969V7H28.168V10.457H25.3906V19H20.3984V10.457H18.3828V7H20.3984V5.89844C20.3984 4.92188 20.625 4.0625 21.0781 3.32031C21.5312 2.57031 22.1875 1.98828 23.0469 1.57422C23.9141 1.16016 24.9648 0.953125 26.1992 0.953125C27.0898 0.953125 27.8438 1.03906 28.4609 1.21094V4.86719ZM38.5977 11.2773C38.4102 11.1914 38.1562 11.1133 37.8359 11.043C37.5156 10.9727 37.25 10.9375 37.0391 10.9375C35.3906 10.9375 34.5664 11.8906 34.5664 13.7969V19H29.5742V7H34.5664V9.10938H34.6133C34.918 8.35156 35.3516 7.77734 35.9141 7.38672C36.4766 6.98828 37.1328 6.78906 37.8828 6.78906C38.1562 6.78906 38.3945 6.83594 38.5977 6.92969V11.2773ZM45.3359 3.76562C45.3359 4.46875 45.0781 5.03906 44.5625 5.47656C44.0547 5.91406 43.3828 6.13281 42.5469 6.13281C41.7344 6.13281 41.0664 5.90625 40.543 5.45312C40.0273 5 39.7695 4.4375 39.7695 3.76562C39.7695 3.07812 40.0195 2.52344 40.5195 2.10156C41.0273 1.67188 41.7031 1.45703 42.5469 1.45703C43.3828 1.45703 44.0547 1.67188 44.5625 2.10156C45.0781 2.52344 45.3359 3.07812 45.3359 3.76562ZM40.0508 19V7H45.043V19H40.0508ZM57.3477 18.6602C57.0273 18.8477 56.5234 19 55.8359 19.1172C55.1484 19.2344 54.3555 19.293 53.457 19.293C52.1914 19.293 51.0586 19.0391 50.0586 18.5312C49.0664 18.0156 48.2969 17.2969 47.75 16.375C47.2031 15.4531 46.9297 14.418 46.9297 13.2695C46.9297 11.8945 47.2188 10.7188 47.7969 9.74219C48.3828 8.75781 49.2148 8.00781 50.293 7.49219C51.3711 6.96875 52.6211 6.70703 54.043 6.70703C54.8242 6.70703 55.5234 6.75781 56.1406 6.85938C56.7656 6.96094 57.168 7.07812 57.3477 7.21094V11.1016C57.0977 10.9062 56.7383 10.7344 56.2695 10.5859C55.8008 10.4375 55.3672 10.3633 54.9688 10.3633C53.9922 10.3633 53.25 10.5977 52.7422 11.0664C52.2422 11.5273 51.9922 12.1797 51.9922 13.0234C51.9922 13.8516 52.2383 14.4961 52.7305 14.957C53.2305 15.4102 53.9141 15.6367 54.7812 15.6367C55.7109 15.6367 56.5664 15.4141 57.3477 14.9688V18.6602ZM65.9961 19V17.1719H65.9492C65.1523 18.5859 63.9336 19.293 62.293 19.293C61.1602 19.293 60.2734 18.957 59.6328 18.2852C58.9922 17.6133 58.6719 16.7148 58.6719 15.5898C58.6719 13.2305 60.1211 11.8633 63.0195 11.4883L65.9961 11.1016C65.9961 10.7109 65.8203 10.3906 65.4688 10.1406C65.1172 9.89062 64.6445 9.76562 64.0508 9.76562C62.707 9.76562 61.2891 10.1484 59.7969 10.9141V7.66797C60.4453 7.38672 61.2578 7.15625 62.2344 6.97656C63.2109 6.79688 64.0469 6.70703 64.7422 6.70703C66.7812 6.70703 68.2578 7.14453 69.1719 8.01953C70.0938 8.88672 70.5547 10.3398 70.5547 12.3789V19H65.9961ZM63.043 14.9219C63.043 15.25 63.1445 15.5195 63.3477 15.7305C63.5586 15.9414 63.8555 16.0469 64.2383 16.0469C64.7617 16.0469 65.1836 15.8516 65.5039 15.4609C65.832 15.0703 65.9961 14.5703 65.9961 13.9609V13.5039L64.3086 13.7383C63.4648 13.8789 63.043 14.2734 63.043 14.9219Z" fill="#C02507"/>
<path d="M99.0898 19H93.7109L91.3789 9.42578C91.3086 9.15234 91.2305 8.47266 91.1445 7.38672H91.0977C90.9805 8.34766 90.8672 9.02734 90.7578 9.42578L88.2383 19H82.543L78.5352 2.19531H84.0898L85.4961 12.0859C85.5195 12.2109 85.5547 12.5742 85.6016 13.1758L85.6719 14.1484H85.7422C85.7578 13.9453 85.8047 13.6016 85.8828 13.1172C85.9609 12.625 86.0352 12.2578 86.1055 12.0156L88.6953 2.19531H94.2148L96.3711 12.1562L96.5234 13.1523L96.6406 14.125H96.6875L96.7227 13.7148L96.875 12.0859L98.3398 2.19531H103.332L99.0898 19ZM110.07 3.76562C110.07 4.46875 109.812 5.03906 109.297 5.47656C108.789 5.91406 108.117 6.13281 107.281 6.13281C106.469 6.13281 105.801 5.90625 105.277 5.45312C104.762 5 104.504 4.4375 104.504 3.76562C104.504 3.07812 104.754 2.52344 105.254 2.10156C105.762 1.67188 106.438 1.45703 107.281 1.45703C108.117 1.45703 108.789 1.67188 109.297 2.10156C109.812 2.52344 110.07 3.07812 110.07 3.76562ZM104.785 19V7H109.777V19H104.785ZM112.191 19V1.23438H117.184V19H112.191ZM127.613 19V17.6055H127.566C127.168 18.1289 126.648 18.543 126.008 18.8477C125.367 19.1445 124.734 19.293 124.109 19.293C123.086 19.293 122.184 19.043 121.402 18.543C120.621 18.0352 120.035 17.3281 119.645 16.4219C119.262 15.5156 119.07 14.4453 119.07 13.2109C119.07 11.9375 119.301 10.8086 119.762 9.82422C120.223 8.83984 120.871 8.07422 121.707 7.52734C122.543 6.98047 123.48 6.70703 124.52 6.70703C125.012 6.70703 125.465 6.77734 125.879 6.91797C126.301 7.05859 126.664 7.25 126.969 7.49219C127.281 7.72656 127.48 7.96094 127.566 8.19531H127.613V1.23438H132.605V19H127.613ZM127.719 12.6367C127.719 11.918 127.559 11.3594 127.238 10.9609C126.926 10.5625 126.5 10.3633 125.961 10.3633C125.422 10.3633 124.98 10.6133 124.637 11.1133C124.301 11.6055 124.133 12.2656 124.133 13.0938C124.133 14.7891 124.719 15.6367 125.891 15.6367C126.445 15.6367 126.887 15.4102 127.215 14.957C127.551 14.4961 127.719 13.8281 127.719 12.9531V12.6367ZM142.156 19V2.19531H147.219V15.0391H153.008V19H142.156ZM159.969 3.76562C159.969 4.46875 159.711 5.03906 159.195 5.47656C158.688 5.91406 158.016 6.13281 157.18 6.13281C156.367 6.13281 155.699 5.90625 155.176 5.45312C154.66 5 154.402 4.4375 154.402 3.76562C154.402 3.07812 154.652 2.52344 155.152 2.10156C155.66 1.67188 156.336 1.45703 157.18 1.45703C158.016 1.45703 158.688 1.67188 159.195 2.10156C159.711 2.52344 159.969 3.07812 159.969 3.76562ZM154.684 19V7H159.676V19H154.684ZM171.336 4.86719C170.82 4.6875 170.34 4.59766 169.895 4.59766C169.34 4.59766 168.93 4.74219 168.664 5.03125C168.398 5.3125 168.266 5.69531 168.266 6.17969V7H171.043V10.457H168.266V19H163.273V10.457H161.258V7H163.273V5.89844C163.273 4.92188 163.5 4.0625 163.953 3.32031C164.406 2.57031 165.062 1.98828 165.922 1.57422C166.789 1.16016 167.84 0.953125 169.074 0.953125C169.965 0.953125 170.719 1.03906 171.336 1.21094V4.86719ZM176.75 14.418C176.836 14.9336 177.133 15.3398 177.641 15.6367C178.148 15.9258 178.82 16.0703 179.656 16.0703C180.82 16.0703 181.922 15.8477 182.961 15.4023V18.5664C181.75 19.0508 180.281 19.293 178.555 19.293C176.461 19.293 174.832 18.7578 173.668 17.6875C172.504 16.6172 171.922 15.1445 171.922 13.2695C171.922 11.9805 172.176 10.8438 172.684 9.85938C173.199 8.875 173.957 8.10547 174.957 7.55078C175.965 6.98828 177.074 6.70703 178.285 6.70703C179.527 6.70703 180.59 6.94922 181.473 7.43359C182.355 7.91797 183.023 8.59766 183.477 9.47266C183.938 10.3477 184.168 11.3711 184.168 12.543V14.418H176.75ZM179.75 11.8047C179.75 10.4219 179.254 9.73047 178.262 9.73047C177.848 9.73047 177.5 9.92188 177.219 10.3047C176.938 10.6797 176.773 11.1797 176.727 11.8047H179.75ZM193.039 19V2.19531H203.504V6.15625H198.102V8.60547H203.176V12.5664H198.102V15.0391H203.891V19H193.039ZM215.691 12.6133L219.559 19H213.816L212.527 16.2695C212.379 15.9648 212.211 15.5469 212.023 15.0156H211.977C211.812 15.5469 211.707 15.875 211.66 16C211.613 16.1172 211.156 17.1172 210.289 19H204.582L208.566 12.9531L204.816 7H210.582L211.871 9.78906C212.043 10.1094 212.215 10.5469 212.387 11.1016H212.434C212.66 10.4219 212.82 9.97656 212.914 9.76562L214.133 7H219.582L215.691 12.6133ZM234.266 12.6367C234.266 13.9492 234.043 15.1094 233.598 16.1172C233.152 17.125 232.523 17.9062 231.711 18.4609C230.898 19.0156 229.984 19.293 228.969 19.293C227.562 19.293 226.496 18.7812 225.77 17.7578H225.723V24.5195H220.73V7H225.723V8.62891H225.77C226.168 8.02734 226.684 7.55859 227.316 7.22266C227.949 6.87891 228.668 6.70703 229.473 6.70703C231.02 6.70703 232.203 7.22266 233.023 8.25391C233.852 9.28516 234.266 10.7461 234.266 12.6367ZM229.203 12.7891C229.203 12.0312 229.055 11.4375 228.758 11.0078C228.469 10.5781 228.02 10.3633 227.41 10.3633C226.879 10.3633 226.449 10.5898 226.121 11.043C225.793 11.4961 225.629 12.1172 225.629 12.9062V13.1406C225.629 13.8984 225.77 14.5039 226.051 14.957C226.332 15.4102 226.754 15.6367 227.316 15.6367C227.918 15.6367 228.383 15.3906 228.711 14.8984C229.039 14.3984 229.203 13.6953 229.203 12.7891ZM236.152 19V1.23438H241.145V19H236.152ZM256.906 12.7891C256.906 14.8125 256.293 16.4023 255.066 17.5586C253.848 18.7148 252.141 19.293 249.945 19.293C247.766 19.293 246.066 18.7305 244.848 17.6055C243.637 16.4727 243.031 14.9141 243.031 12.9297C243.031 11.6562 243.316 10.5508 243.887 9.61328C244.457 8.67578 245.27 7.95703 246.324 7.45703C247.379 6.95703 248.594 6.70703 249.969 6.70703C251.391 6.70703 252.621 6.96875 253.66 7.49219C254.707 8.01562 255.508 8.74219 256.062 9.67188C256.625 10.6016 256.906 11.6406 256.906 12.7891ZM251.844 12.8125C251.844 11.1797 251.219 10.3633 249.969 10.3633C248.719 10.3633 248.094 11.2188 248.094 12.9297C248.094 14.7344 248.727 15.6367 249.992 15.6367C251.227 15.6367 251.844 14.6953 251.844 12.8125ZM267.793 11.2773C267.605 11.1914 267.352 11.1133 267.031 11.043C266.711 10.9727 266.445 10.9375 266.234 10.9375C264.586 10.9375 263.762 11.8906 263.762 13.7969V19H258.77V7H263.762V9.10938H263.809C264.113 8.35156 264.547 7.77734 265.109 7.38672C265.672 6.98828 266.328 6.78906 267.078 6.78906C267.352 6.78906 267.59 6.83594 267.793 6.92969V11.2773ZM273.547 14.418C273.633 14.9336 273.93 15.3398 274.438 15.6367C274.945 15.9258 275.617 16.0703 276.453 16.0703C277.617 16.0703 278.719 15.8477 279.758 15.4023V18.5664C278.547 19.0508 277.078 19.293 275.352 19.293C273.258 19.293 271.629 18.7578 270.465 17.6875C269.301 16.6172 268.719 15.1445 268.719 13.2695C268.719 11.9805 268.973 10.8438 269.48 9.85938C269.996 8.875 270.754 8.10547 271.754 7.55078C272.762 6.98828 273.871 6.70703 275.082 6.70703C276.324 6.70703 277.387 6.94922 278.27 7.43359C279.152 7.91797 279.82 8.59766 280.273 9.47266C280.734 10.3477 280.965 11.3711 280.965 12.543V14.418H273.547ZM276.547 11.8047C276.547 10.4219 276.051 9.73047 275.059 9.73047C274.645 9.73047 274.297 9.92188 274.016 10.3047C273.734 10.6797 273.57 11.1797 273.523 11.8047H276.547ZM291.723 11.2773C291.535 11.1914 291.281 11.1133 290.961 11.043C290.641 10.9727 290.375 10.9375 290.164 10.9375C288.516 10.9375 287.691 11.8906 287.691 13.7969V19H282.699V7H287.691V9.10938H287.738C288.043 8.35156 288.477 7.77734 289.039 7.38672C289.602 6.98828 290.258 6.78906 291.008 6.78906C291.281 6.78906 291.52 6.83594 291.723 6.92969V11.2773Z" fill="white"/>
</svg>
