<svg width="292" height="34" viewBox="0 0 292 34" fill="none" xmlns="http://www.w3.org/2000/svg">
<path d="M12.207 26.5L11.4688 23.4062H6.45312L5.65625 26.5H0.183594L5.97266 9.69531H12.2539L17.7031 26.5H12.207ZM9.01953 13.3516H8.90234C8.88672 13.5391 8.83203 13.8477 8.73828 14.2773C8.64453 14.707 8.17188 16.5508 7.32031 19.8086H10.5312L9.35938 15.2383C9.19531 14.5664 9.08203 13.9375 9.01953 13.3516ZM28.4609 12.3672C27.9453 12.1875 27.4648 12.0977 27.0195 12.0977C26.4648 12.0977 26.0547 12.2422 25.7891 12.5312C25.5234 12.8125 25.3906 13.1953 25.3906 13.6797V14.5H28.168V17.957H25.3906V26.5H20.3984V17.957H18.3828V14.5H20.3984V13.3984C20.3984 12.4219 20.625 11.5625 21.0781 10.8203C21.5312 10.0703 22.1875 9.48828 23.0469 9.07422C23.9141 8.66016 24.9648 8.45312 26.1992 8.45312C27.0898 8.45312 27.8438 8.53906 28.4609 8.71094V12.3672ZM38.5977 18.7773C38.4102 18.6914 38.1562 18.6133 37.8359 18.543C37.5156 18.4727 37.25 18.4375 37.0391 18.4375C35.3906 18.4375 34.5664 19.3906 34.5664 21.2969V26.5H29.5742V14.5H34.5664V16.6094H34.6133C34.918 15.8516 35.3516 15.2773 35.9141 14.8867C36.4766 14.4883 37.1328 14.2891 37.8828 14.2891C38.1562 14.2891 38.3945 14.3359 38.5977 14.4297V18.7773ZM45.3359 11.2656C45.3359 11.9688 45.0781 12.5391 44.5625 12.9766C44.0547 13.4141 43.3828 13.6328 42.5469 13.6328C41.7344 13.6328 41.0664 13.4062 40.543 12.9531C40.0273 12.5 39.7695 11.9375 39.7695 11.2656C39.7695 10.5781 40.0195 10.0234 40.5195 9.60156C41.0273 9.17188 41.7031 8.95703 42.5469 8.95703C43.3828 8.95703 44.0547 9.17188 44.5625 9.60156C45.0781 10.0234 45.3359 10.5781 45.3359 11.2656ZM40.0508 26.5V14.5H45.043V26.5H40.0508ZM57.3477 26.1602C57.0273 26.3477 56.5234 26.5 55.8359 26.6172C55.1484 26.7344 54.3555 26.793 53.457 26.793C52.1914 26.793 51.0586 26.5391 50.0586 26.0312C49.0664 25.5156 48.2969 24.7969 47.75 23.875C47.2031 22.9531 46.9297 21.918 46.9297 20.7695C46.9297 19.3945 47.2188 18.2188 47.7969 17.2422C48.3828 16.2578 49.2148 15.5078 50.293 14.9922C51.3711 14.4688 52.6211 14.207 54.043 14.207C54.8242 14.207 55.5234 14.2578 56.1406 14.3594C56.7656 14.4609 57.168 14.5781 57.3477 14.7109V18.6016C57.0977 18.4062 56.7383 18.2344 56.2695 18.0859C55.8008 17.9375 55.3672 17.8633 54.9688 17.8633C53.9922 17.8633 53.25 18.0977 52.7422 18.5664C52.2422 19.0273 51.9922 19.6797 51.9922 20.5234C51.9922 21.3516 52.2383 21.9961 52.7305 22.457C53.2305 22.9102 53.9141 23.1367 54.7812 23.1367C55.7109 23.1367 56.5664 22.9141 57.3477 22.4688V26.1602ZM65.9961 26.5V24.6719H65.9492C65.1523 26.0859 63.9336 26.793 62.293 26.793C61.1602 26.793 60.2734 26.457 59.6328 25.7852C58.9922 25.1133 58.6719 24.2148 58.6719 23.0898C58.6719 20.7305 60.1211 19.3633 63.0195 18.9883L65.9961 18.6016C65.9961 18.2109 65.8203 17.8906 65.4688 17.6406C65.1172 17.3906 64.6445 17.2656 64.0508 17.2656C62.707 17.2656 61.2891 17.6484 59.7969 18.4141V15.168C60.4453 14.8867 61.2578 14.6562 62.2344 14.4766C63.2109 14.2969 64.0469 14.207 64.7422 14.207C66.7812 14.207 68.2578 14.6445 69.1719 15.5195C70.0938 16.3867 70.5547 17.8398 70.5547 19.8789V26.5H65.9961ZM63.043 22.4219C63.043 22.75 63.1445 23.0195 63.3477 23.2305C63.5586 23.4414 63.8555 23.5469 64.2383 23.5469C64.7617 23.5469 65.1836 23.3516 65.5039 22.9609C65.832 22.5703 65.9961 22.0703 65.9961 21.4609V21.0039L64.3086 21.2383C63.4648 21.3789 63.043 21.7734 63.043 22.4219Z" fill="#C02507"/>
<path d="M99.0898 26.5H93.7109L91.3789 16.9258C91.3086 16.6523 91.2305 15.9727 91.1445 14.8867H91.0977C90.9805 15.8477 90.8672 16.5273 90.7578 16.9258L88.2383 26.5H82.543L78.5352 9.69531H84.0898L85.4961 19.5859C85.5195 19.7109 85.5547 20.0742 85.6016 20.6758L85.6719 21.6484H85.7422C85.7578 21.4453 85.8047 21.1016 85.8828 20.6172C85.9609 20.125 86.0352 19.7578 86.1055 19.5156L88.6953 9.69531H94.2148L96.3711 19.6562L96.5234 20.6523L96.6406 21.625H96.6875L96.7227 21.2148L96.875 19.5859L98.3398 9.69531H103.332L99.0898 26.5ZM110.07 11.2656C110.07 11.9688 109.812 12.5391 109.297 12.9766C108.789 13.4141 108.117 13.6328 107.281 13.6328C106.469 13.6328 105.801 13.4062 105.277 12.9531C104.762 12.5 104.504 11.9375 104.504 11.2656C104.504 10.5781 104.754 10.0234 105.254 9.60156C105.762 9.17188 106.438 8.95703 107.281 8.95703C108.117 8.95703 108.789 9.17188 109.297 9.60156C109.812 10.0234 110.07 10.5781 110.07 11.2656ZM104.785 26.5V14.5H109.777V26.5H104.785ZM112.191 26.5V8.73438H117.184V26.5H112.191ZM127.613 26.5V25.1055H127.566C127.168 25.6289 126.648 26.043 126.008 26.3477C125.367 26.6445 124.734 26.793 124.109 26.793C123.086 26.793 122.184 26.543 121.402 26.043C120.621 25.5352 120.035 24.8281 119.645 23.9219C119.262 23.0156 119.07 21.9453 119.07 20.7109C119.07 19.4375 119.301 18.3086 119.762 17.3242C120.223 16.3398 120.871 15.5742 121.707 15.0273C122.543 14.4805 123.48 14.207 124.52 14.207C125.012 14.207 125.465 14.2773 125.879 14.418C126.301 14.5586 126.664 14.75 126.969 14.9922C127.281 15.2266 127.48 15.4609 127.566 15.6953H127.613V8.73438H132.605V26.5H127.613ZM127.719 20.1367C127.719 19.418 127.559 18.8594 127.238 18.4609C126.926 18.0625 126.5 17.8633 125.961 17.8633C125.422 17.8633 124.98 18.1133 124.637 18.6133C124.301 19.1055 124.133 19.7656 124.133 20.5938C124.133 22.2891 124.719 23.1367 125.891 23.1367C126.445 23.1367 126.887 22.9102 127.215 22.457C127.551 21.9961 127.719 21.3281 127.719 20.4531V20.1367ZM142.156 26.5V9.69531H147.219V22.5391H153.008V26.5H142.156ZM159.969 11.2656C159.969 11.9688 159.711 12.5391 159.195 12.9766C158.688 13.4141 158.016 13.6328 157.18 13.6328C156.367 13.6328 155.699 13.4062 155.176 12.9531C154.66 12.5 154.402 11.9375 154.402 11.2656C154.402 10.5781 154.652 10.0234 155.152 9.60156C155.66 9.17188 156.336 8.95703 157.18 8.95703C158.016 8.95703 158.688 9.17188 159.195 9.60156C159.711 10.0234 159.969 10.5781 159.969 11.2656ZM154.684 26.5V14.5H159.676V26.5H154.684ZM171.336 12.3672C170.82 12.1875 170.34 12.0977 169.895 12.0977C169.34 12.0977 168.93 12.2422 168.664 12.5312C168.398 12.8125 168.266 13.1953 168.266 13.6797V14.5H171.043V17.957H168.266V26.5H163.273V17.957H161.258V14.5H163.273V13.3984C163.273 12.4219 163.5 11.5625 163.953 10.8203C164.406 10.0703 165.062 9.48828 165.922 9.07422C166.789 8.66016 167.84 8.45312 169.074 8.45312C169.965 8.45312 170.719 8.53906 171.336 8.71094V12.3672ZM176.75 21.918C176.836 22.4336 177.133 22.8398 177.641 23.1367C178.148 23.4258 178.82 23.5703 179.656 23.5703C180.82 23.5703 181.922 23.3477 182.961 22.9023V26.0664C181.75 26.5508 180.281 26.793 178.555 26.793C176.461 26.793 174.832 26.2578 173.668 25.1875C172.504 24.1172 171.922 22.6445 171.922 20.7695C171.922 19.4805 172.176 18.3438 172.684 17.3594C173.199 16.375 173.957 15.6055 174.957 15.0508C175.965 14.4883 177.074 14.207 178.285 14.207C179.527 14.207 180.59 14.4492 181.473 14.9336C182.355 15.418 183.023 16.0977 183.477 16.9727C183.938 17.8477 184.168 18.8711 184.168 20.043V21.918H176.75ZM179.75 19.3047C179.75 17.9219 179.254 17.2305 178.262 17.2305C177.848 17.2305 177.5 17.4219 177.219 17.8047C176.938 18.1797 176.773 18.6797 176.727 19.3047H179.75ZM193.039 26.5V9.69531H203.504V13.6562H198.102V16.1055H203.176V20.0664H198.102V22.5391H203.891V26.5H193.039ZM215.691 20.1133L219.559 26.5H213.816L212.527 23.7695C212.379 23.4648 212.211 23.0469 212.023 22.5156H211.977C211.812 23.0469 211.707 23.375 211.66 23.5C211.613 23.6172 211.156 24.6172 210.289 26.5H204.582L208.566 20.4531L204.816 14.5H210.582L211.871 17.2891C212.043 17.6094 212.215 18.0469 212.387 18.6016H212.434C212.66 17.9219 212.82 17.4766 212.914 17.2656L214.133 14.5H219.582L215.691 20.1133ZM234.266 20.1367C234.266 21.4492 234.043 22.6094 233.598 23.6172C233.152 24.625 232.523 25.4062 231.711 25.9609C230.898 26.5156 229.984 26.793 228.969 26.793C227.562 26.793 226.496 26.2812 225.77 25.2578H225.723V32.0195H220.73V14.5H225.723V16.1289H225.77C226.168 15.5273 226.684 15.0586 227.316 14.7227C227.949 14.3789 228.668 14.207 229.473 14.207C231.02 14.207 232.203 14.7227 233.023 15.7539C233.852 16.7852 234.266 18.2461 234.266 20.1367ZM229.203 20.2891C229.203 19.5312 229.055 18.9375 228.758 18.5078C228.469 18.0781 228.02 17.8633 227.41 17.8633C226.879 17.8633 226.449 18.0898 226.121 18.543C225.793 18.9961 225.629 19.6172 225.629 20.4062V20.6406C225.629 21.3984 225.77 22.0039 226.051 22.457C226.332 22.9102 226.754 23.1367 227.316 23.1367C227.918 23.1367 228.383 22.8906 228.711 22.3984C229.039 21.8984 229.203 21.1953 229.203 20.2891ZM236.152 26.5V8.73438H241.145V26.5H236.152ZM256.906 20.2891C256.906 22.3125 256.293 23.9023 255.066 25.0586C253.848 26.2148 252.141 26.793 249.945 26.793C247.766 26.793 246.066 26.2305 244.848 25.1055C243.637 23.9727 243.031 22.4141 243.031 20.4297C243.031 19.1562 243.316 18.0508 243.887 17.1133C244.457 16.1758 245.27 15.457 246.324 14.957C247.379 14.457 248.594 14.207 249.969 14.207C251.391 14.207 252.621 14.4688 253.66 14.9922C254.707 15.5156 255.508 16.2422 256.062 17.1719C256.625 18.1016 256.906 19.1406 256.906 20.2891ZM251.844 20.3125C251.844 18.6797 251.219 17.8633 249.969 17.8633C248.719 17.8633 248.094 18.7188 248.094 20.4297C248.094 22.2344 248.727 23.1367 249.992 23.1367C251.227 23.1367 251.844 22.1953 251.844 20.3125ZM267.793 18.7773C267.605 18.6914 267.352 18.6133 267.031 18.543C266.711 18.4727 266.445 18.4375 266.234 18.4375C264.586 18.4375 263.762 19.3906 263.762 21.2969V26.5H258.77V14.5H263.762V16.6094H263.809C264.113 15.8516 264.547 15.2773 265.109 14.8867C265.672 14.4883 266.328 14.2891 267.078 14.2891C267.352 14.2891 267.59 14.3359 267.793 14.4297V18.7773ZM273.547 21.918C273.633 22.4336 273.93 22.8398 274.438 23.1367C274.945 23.4258 275.617 23.5703 276.453 23.5703C277.617 23.5703 278.719 23.3477 279.758 22.9023V26.0664C278.547 26.5508 277.078 26.793 275.352 26.793C273.258 26.793 271.629 26.2578 270.465 25.1875C269.301 24.1172 268.719 22.6445 268.719 20.7695C268.719 19.4805 268.973 18.3438 269.48 17.3594C269.996 16.375 270.754 15.6055 271.754 15.0508C272.762 14.4883 273.871 14.207 275.082 14.207C276.324 14.207 277.387 14.4492 278.27 14.9336C279.152 15.418 279.82 16.0977 280.273 16.9727C280.734 17.8477 280.965 18.8711 280.965 20.043V21.918H273.547ZM276.547 19.3047C276.547 17.9219 276.051 17.2305 275.059 17.2305C274.645 17.2305 274.297 17.4219 274.016 17.8047C273.734 18.1797 273.57 18.6797 273.523 19.3047H276.547ZM291.723 18.7773C291.535 18.6914 291.281 18.6133 290.961 18.543C290.641 18.4727 290.375 18.4375 290.164 18.4375C288.516 18.4375 287.691 19.3906 287.691 21.2969V26.5H282.699V14.5H287.691V16.6094H287.738C288.043 15.8516 288.477 15.2773 289.039 14.8867C289.602 14.4883 290.258 14.2891 291.008 14.2891C291.281 14.2891 291.52 14.3359 291.723 14.4297V18.7773Z" fill="white"/>
</svg>
