<svg width="64" height="64" viewBox="0 0 64 64" fill="none" xmlns="http://www.w3.org/2000/svg">
<path fill-rule="evenodd" clip-rule="evenodd" d="M30 44V58C30 59.104 30.896 60 32 60C33.104 60 34 59.104 34 58V44C34 42.896 33.104 42 32 42C30.896 42 30 42.896 30 44ZM38 10.83V20C38 23.312 35.312 26 32 26C28.688 26 26 23.312 26 20V10.83C18.678 12.904 12.904 18.678 10.83 26H20C23.312 26 26 28.688 26 32C26 35.312 23.312 38 20 38H10.83C12.904 45.322 18.678 51.096 26 53.17V44C26 40.688 28.688 38 32 38C35.312 38 38 40.688 38 44V53.17C45.322 51.096 51.096 45.322 53.17 38H44C40.688 38 38 35.312 38 32C38 28.688 40.688 26 44 26H53.17C51.096 18.678 45.322 12.904 38 10.83ZM20 30H6C4.896 30 4 30.896 4 32C4 33.104 4.896 34 6 34H20C21.104 34 22 33.104 22 32C22 30.896 21.104 30 20 30ZM58 30H44C42.896 30 42 30.896 42 32C42 33.104 42.896 34 44 34H58C59.104 34 60 33.104 60 32C60 30.896 59.104 30 58 30ZM30 6V20C30 21.104 30.896 22 32 22C33.104 22 34 21.104 34 20V6C34 4.896 33.104 4 32 4C30.896 4 30 4.896 30 6Z" fill="#C02507"/>
</svg>
