<svg width="64" height="64" viewBox="0 0 64 64" fill="none" xmlns="http://www.w3.org/2000/svg">
<path d="M58.7074 57.4134C61.1218 53.2324 64 46.3902 64 37.5372C64 27.4501 63.1816 21.5199 62.3816 17.7632C61.9695 17.8527 61.5498 17.8991 61.1299 17.8991C59.6288 17.8991 58.1276 17.3278 56.985 16.1849L49.5329 8.73297L53.7515 4.51461C54.2113 4.05486 54.7164 3.65824 55.2554 3.32536C52.6918 1.092 49.5588 0 45.7487 0C40.5905 0 38.7398 1.26075 37.107 2.37299C35.7764 3.27936 34.4005 4.21673 32 4.21673C29.5995 4.21673 28.2235 3.27936 26.893 2.37299C25.2602 1.26075 23.4095 0 18.2513 0C14.4413 0 11.3082 1.092 8.74472 3.32524C9.28371 3.65811 9.78884 4.05473 10.2486 4.51448L14.4672 8.73284L7.01497 16.1848C5.87223 17.3277 4.37123 17.8989 2.87011 17.8989C2.45012 17.8989 2.03049 17.8526 1.61837 17.7631C0.818372 21.5198 0 27.4501 0 37.5372C0 46.3902 2.87811 53.2324 5.2926 57.4134C7.25685 60.8146 9.24471 63.064 10.1415 63.9997H21.2867C25.5518 63.9997 27.9508 61.6254 29.1651 59.8003C27.0064 59.1528 25.5812 57.8276 24.6962 56.6635C24.0154 55.7682 23.582 54.8775 23.3198 54.2158C22.5557 53.9118 21.4878 53.3759 20.4462 52.4784C18.8321 51.0877 17.0063 48.5779 17.1363 44.3899C15.3873 42.4191 10.6621 36.2155 11.7595 27.7545C11.7878 27.5354 11.8165 27.2948 11.8473 27.0359C12.2583 23.588 13.0233 17.1704 18.0653 13.9821C21.4824 11.8212 26.1683 11.6653 31.9999 13.5167C37.8315 11.6655 42.5175 11.8213 45.9344 13.9821C50.9764 17.1704 51.7414 23.588 52.1524 27.0359C52.1833 27.2948 52.212 27.5354 52.2403 27.7545C53.3377 36.2155 48.6126 42.4191 46.8634 44.3899C46.9932 48.5779 45.1676 51.0877 43.5535 52.4784C42.5118 53.3759 41.4441 53.9119 40.68 54.2158C40.4176 54.8775 39.9842 55.7682 39.3036 56.6635C38.4185 57.8276 36.9931 59.153 34.8342 59.8004C36.0474 61.6235 38.4466 63.9997 42.7133 63.9997H53.8587C54.7538 63.0656 56.7423 60.8159 58.7074 57.4134Z" fill="#C02507"/>
<path d="M32.0008 56.4493C33.8296 56.4493 35.2824 55.7578 36.3193 54.394C36.5196 54.1307 36.6858 53.8667 36.8228 53.6192L32.0008 51.1387L27.1797 53.6185C27.3332 53.8964 27.5222 54.1938 27.7552 54.4879C28.8008 55.8077 30.1896 56.4493 32.0008 56.4493Z" fill="#C02507"/>
<path d="M22.7939 49.5474C23.4584 50.1472 24.1658 50.5073 24.6463 50.7048L30.1267 47.8858V44.3501C26.8988 43.6336 25.5069 41.1317 25.2139 39.708L28.887 38.9524C28.887 38.9524 28.8849 38.9395 28.879 38.9159C28.9582 39.2301 29.4802 40.7981 32.0017 40.7981C33.1917 40.7981 34.0802 40.4599 34.6428 39.7929C34.9919 39.3787 35.1155 38.9561 35.1163 38.9524L38.7894 39.708C38.4964 41.1319 37.1045 43.6336 33.8767 44.3501V47.8858L39.357 50.7048C39.8376 50.5073 40.5448 50.1472 41.2093 49.5474C42.6717 48.2275 43.3004 46.3157 43.0776 43.8653L42.9962 42.97L43.6435 42.346C43.6992 42.2916 49.5872 36.4401 48.5233 28.2365C48.4933 28.0057 48.4632 27.7523 48.4306 27.4794C48.0935 24.6509 47.4657 19.3858 43.932 17.1513C41.3996 15.55 37.5869 15.5887 32.5994 17.2662L32.0017 17.4671L31.404 17.2662C28.852 16.408 26.6073 15.9786 24.6846 15.9786C22.8494 15.9786 21.308 16.3693 20.0715 17.1513C16.5376 19.3858 15.91 24.6509 15.5728 27.4794C15.5402 27.7523 15.5101 28.0057 15.4801 28.2364C14.4162 36.4401 20.3042 42.2916 20.3638 42.3497L21.0025 42.9728L20.9257 43.8655C20.7028 46.3158 21.3315 48.2275 22.7939 49.5474ZM38.4981 27.2082H42.7149V30.9581H38.4981V27.2082ZM21.2885 27.2082H25.5052V30.9581H21.2885V27.2082Z" fill="#C02507"/>
<path d="M1.37981 13.534C2.20331 14.3573 3.54281 14.3573 4.36631 13.534L9.16656 8.73353L7.59968 7.16678C6.75831 6.32541 5.64231 5.86328 4.45368 5.86328C4.44093 5.86328 4.42831 5.86328 4.41543 5.86341C3.21293 5.87341 2.08956 6.35566 1.25218 7.22141C-0.424315 8.95516 -0.36719 11.7869 1.37981 13.534Z" fill="#C02507"/>
<path d="M59.5869 5.86351C58.3806 5.85139 57.2532 6.31626 56.4027 7.16689L54.8359 8.73364L59.6362 13.534C60.4598 14.3573 61.7993 14.3573 62.6227 13.534C64.3697 11.7869 64.4268 8.95514 62.7502 7.22151C61.9129 6.35589 60.7894 5.87351 59.5869 5.86351Z" fill="#C02507"/>
</svg>
