<svg width="64" height="64" viewBox="0 0 64 64" fill="none" xmlns="http://www.w3.org/2000/svg">
<path fill-rule="evenodd" clip-rule="evenodd" d="M31.0921 25.7692C31.0921 25.7692 26.8476 23.4527 23.4512 19.7719C21.0052 17.1198 19.0498 13.7709 19.0498 10.1156C19.0498 5.63953 22.6816 2.00977 27.155 2.00977C29.0319 2.00977 30.7149 2.64087 32.0622 3.70609C33.4465 2.64452 35.1948 2.00977 37.0456 2.00977C41.4645 2.00977 45.0528 5.59575 45.0528 10.0135C45.0528 13.687 43.0973 17.0541 40.6535 19.7208C37.2593 23.4272 33.0148 25.7655 33.0148 25.7655C32.4175 26.0939 31.6916 26.0939 31.0921 25.7692ZM34.0503 42.0137H41.9855C44.002 42.0137 45.8833 43.0279 46.9951 44.7133C48.1048 46.395 48.2944 48.5254 47.5009 50.3786L44.9285 56.3796C43.9824 58.5866 41.8133 60.0166 39.4131 60.0166H24.6872C22.2871 60.0166 20.118 58.5866 19.1718 56.3796L16.6016 50.3786C15.8059 48.5254 15.9956 46.395 17.1074 44.7133C18.217 43.0279 20.0983 42.0137 22.117 42.0137H30.05V29.6689C31.3449 30.1286 32.7576 30.1286 34.0503 29.6689V42.0137ZM26.0497 38.4423C24.4736 38.2344 22.7993 37.7784 21.2559 36.8883C16.2877 34.021 14.5306 27.7172 14.5306 27.7172C14.3911 27.2029 14.463 26.652 14.729 26.1924C14.9949 25.7291 15.4353 25.3934 15.952 25.2548C15.952 25.2548 21.3213 23.8759 26.0497 25.8932V38.4423ZM38.0506 25.8932C42.779 23.8759 48.1505 25.2548 48.1505 25.2548C48.665 25.3934 49.1054 25.7291 49.3735 26.1924C49.6395 26.652 49.7114 27.2029 49.5697 27.7172C49.5697 27.7172 47.8127 34.021 42.8466 36.8883C41.3032 37.7784 39.6268 38.2344 38.0506 38.4423V25.8932Z" fill="#C02507"/>
</svg>
