<svg width="64" height="64" viewBox="0 0 64 64" fill="none" xmlns="http://www.w3.org/2000/svg">
<path fill-rule="evenodd" clip-rule="evenodd" d="M37.658 56H26.342C27.164 58.33 29.388 60 32 60C34.612 60 36.836 58.33 37.658 56ZM12 52H52C53.592 52 55.118 51.368 56.242 50.242C57.368 49.118 58 47.592 58 46C58 44.408 57.368 42.882 56.242 41.758C55.118 40.632 53.592 40 52 40H12C10.408 40 8.882 40.632 7.758 41.758C6.632 42.882 6 44.408 6 46C6 47.592 6.632 49.118 7.758 50.242C8.882 51.368 10.408 52 12 52ZM12 36H52V32C52 27.226 50.104 22.648 46.728 19.272C43.352 15.896 38.774 14 34 14V8C34 6.896 33.104 6 32 6C30.896 6 30 6.896 30 8V14C25.226 14 20.648 15.896 17.272 19.272C13.896 22.648 12 27.226 12 32V36ZM47.278 15.864C49.99 16.916 51.958 18.794 53.056 21.642C53.452 22.672 54.612 23.186 55.642 22.788C56.672 22.392 57.186 21.232 56.788 20.202C55.256 16.228 52.51 13.604 48.722 12.136C47.694 11.736 46.534 12.248 46.136 13.278C45.736 14.306 46.248 15.466 47.278 15.864ZM15.278 12.136C11.49 13.604 8.74401 16.228 7.21201 20.202C6.81401 21.232 7.328 22.392 8.358 22.788C9.388 23.186 10.548 22.672 10.944 21.642C12.042 18.794 14.01 16.916 16.722 15.864C17.752 15.466 18.264 14.306 17.864 13.278C17.466 12.248 16.306 11.736 15.278 12.136Z" fill="#C02507"/>
</svg>
