<svg width="64" height="64" viewBox="0 0 64 64" fill="none" xmlns="http://www.w3.org/2000/svg">
<path fill-rule="evenodd" clip-rule="evenodd" d="M33.592 3.78802C33.212 3.29202 32.624 3 32 3C31.376 3 30.788 3.29202 30.408 3.78802C30.408 3.78802 21.226 15.85 15.716 26.636C13.212 31.534 11.5 36.21 11.5 39.5C11.5 50.814 20.686 60 32 60C43.314 60 52.5 50.814 52.5 39.5C52.5 36.21 50.788 31.534 48.284 26.636C42.774 15.85 33.592 3.78802 33.592 3.78802ZM34 36V30C34 28.896 33.104 28 32 28C30.896 28 30 28.896 30 30V36H24C22.896 36 22 36.896 22 38C22 39.104 22.896 40 24 40H30V46C30 47.104 30.896 48 32 48C33.104 48 34 47.104 34 46V40H40C41.104 40 42 39.104 42 38C42 36.896 41.104 36 40 36H34Z" fill="#C02507"/>
</svg>
