<svg width="64" height="64" viewBox="0 0 64 64" fill="none" xmlns="http://www.w3.org/2000/svg">
<path fill-rule="evenodd" clip-rule="evenodd" d="M31.0956 31.7365C31.0956 31.7365 26.0598 28.9927 22.0311 24.6255C19.1614 21.5142 16.8541 17.602 16.8541 13.3135C16.8541 8.16736 21.0318 3.98828 26.1801 3.98828C28.4534 3.98828 30.4782 4.79346 32.0661 6.14127C33.6933 4.79784 35.807 3.98828 38.0489 3.98828C43.1318 3.98828 47.2573 8.11485 47.2573 13.191C47.2573 17.5014 44.9499 21.4354 42.0854 24.5642C38.0568 28.9621 33.021 31.7365 33.021 31.7365C32.4219 32.0647 31.6973 32.0647 31.0956 31.7365ZM32.0949 38.3443C32.9686 38.3443 33.8084 38.69 34.4284 39.3114C35.0457 39.9284 35.3937 41.6481 35.3937 41.6481C35.3937 42.5233 35.0457 43.3591 34.4284 43.9805C33.8084 44.5976 32.9686 44.9476 32.0949 44.9476H21.3353C20.7833 44.9476 20.336 45.394 20.336 45.9454C20.336 46.4967 20.7833 46.9475 21.3353 46.9475H32.0949C33.4997 46.9475 54.5009 35.0623 54.5009 35.0623C55.4558 34.5415 56.6147 34.5634 57.5486 35.1148C58.4851 35.6705 59.058 36.677 59.058 37.7622V39.2238C59.058 40.3485 58.4406 41.3856 57.4518 41.9282L36.8116 53.1833C36.3695 53.424 35.8776 53.5465 35.3754 53.5465H22.5282C21.9527 53.5465 20.2758 53.6559 19.0803 53.8659C18.4368 53.9797 17.9136 54.146 17.6494 54.3035L12.3441 57.4849C11.5018 57.9881 10.4815 58.0931 9.55544 57.7737C8.632 57.4499 7.89692 56.7322 7.55161 55.8132L4.27375 47.07C3.67992 45.4903 4.37578 43.7136 5.88783 42.9566L14.4212 38.6943C14.8816 38.4624 15.3865 38.3443 15.8993 38.3443H32.0949Z" fill="#C02507"/>
</svg>
