<svg width="64" height="64" viewBox="0 0 64 64" fill="none" xmlns="http://www.w3.org/2000/svg">
<path fill-rule="evenodd" clip-rule="evenodd" d="M29.9968 6V43.88C29.3988 48.994 30.4648 54.11 34.4148 59.222C35.0888 60.096 36.3468 60.258 37.2188 59.582C38.0928 58.908 38.2548 57.65 37.5788 56.778C34.3508 52.598 33.4708 48.422 33.9828 44.242C33.9928 44.162 33.9968 44.082 33.9968 44V6C33.9968 4.896 33.1008 4 31.9968 4C30.8928 4 29.9968 4.896 29.9968 6ZM37.9968 32.272V44C37.9968 44.244 37.9828 44.486 37.9528 44.728C37.8868 45.264 37.8528 45.798 37.8508 46.334C39.9848 46.298 42.3688 45.894 44.4808 44.676C49.9568 41.514 51.5988 34.024 51.5988 34.024C51.8088 33.026 51.2328 32.03 50.2648 31.712C50.2648 31.712 43.4048 29.532 37.9968 32.272ZM25.8368 46.328C25.8448 45.436 25.8988 44.546 25.9968 43.656V32.288C20.5848 29.522 13.6988 31.712 13.6988 31.712C12.7288 32.03 12.1548 33.026 12.3628 34.024C12.3628 34.024 14.0048 41.514 19.4808 44.676C21.5048 45.844 23.7768 46.262 25.8368 46.328ZM25.9968 27.958V20.288C20.5848 17.522 13.6988 19.712 13.6988 19.712C12.7288 20.03 12.1548 21.026 12.3628 22.024C12.3628 22.024 12.9368 24.64 14.5348 27.43C17.1228 26.95 21.7248 26.474 25.9968 27.958ZM37.9968 20.272V27.946C42.2588 26.476 46.8448 26.952 49.4268 27.43C51.0248 24.64 51.5988 22.024 51.5988 22.024C51.8088 21.026 51.2328 20.03 50.2648 19.712C50.2648 19.712 43.4048 17.532 37.9968 20.272ZM25.9968 15.958V8.28799C20.5848 5.52199 13.6988 7.71201 13.6988 7.71201C12.7288 8.03001 12.1548 9.026 12.3628 10.024C12.3628 10.024 12.9368 12.64 14.5348 15.43C17.1228 14.95 21.7248 14.474 25.9968 15.958ZM37.9968 8.272V15.946C42.2588 14.476 46.8448 14.952 49.4268 15.43C51.0248 12.64 51.5988 10.024 51.5988 10.024C51.8088 9.026 51.2328 8.03001 50.2648 7.71201C50.2648 7.71201 43.4048 5.532 37.9968 8.272Z" fill="#C02507"/>
</svg>
